<svg xmlns="http://www.w3.org/2000/svg"  viewBox="0 0 100 100" width="100px" height="100px"><path d="M74.5,97c-3.584,0-6.5-2.916-6.5-6.5V90v-4c-3.584,0-7,1.084-7-2.5V83l1-4c-3.584,0-6,3.084-6-0.5V78h-0.5 c-1.713,0-1.277-3.801-2.5-5l-6.092-0.823C44.488,72.724,42.007,73,39.5,73C21.028,73,6,57.972,6,39.5S21.028,6,39.5,6 S73,21.028,73,39.5c0,2.496-0.273,4.965-0.816,7.376l22.924,23.039C96.328,71.142,97,72.77,97,74.5v16c0,3.584-2.916,6.5-6.5,6.5 H74.5z" opacity=".35"/><path fill="#f2f2f2" d="M72.5,95c-3.584,0-6.5-2.916-6.5-6.5V88h-0.5c-3.584,0-6.5-2.916-6.5-6.5V81h-0.5 c-3.584,0-4.5-0.916-4.5-4.5V76h-0.5c-1.713,0-3.329-0.661-4.552-1.86l-4.04-3.963C42.488,70.724,40.007,71,37.5,71 C19.028,71,4,55.972,4,37.5S19.028,4,37.5,4S71,19.028,71,37.5c0,2.496-0.273,4.965-0.816,7.376l22.924,23.039 C94.328,69.142,95,70.77,95,72.5v16c0,3.584-2.916,6.5-6.5,6.5H72.5z"/><path fill="#ffc571" d="M62.874,46.747c1.052-2.885,1.626-5.998,1.626-9.247c0-14.912-12.088-27-27-27s-27,12.088-27,27	s12.088,27,27,27c3.248,0,6.362-0.574,9.247-1.626L53,68l5.5-0.5v7h7v7h7v7h16v-16L62.874,46.747z"/><path fill="#ef8630" d="M81,88L51.689,58.689c-1.998,1.34-4.195,2.406-6.539,3.142L53,67l5,1v6h7v8h7v6H81z"/><path fill="#ef8630" d="M56.557,54.436c-0.665,0.748-1.373,1.456-2.121,2.121l33.003,33.003l2.121-2.121L56.557,54.436z"/><path fill="none" stroke="#40396e" stroke-linecap="round" stroke-linejoin="round" stroke-miterlimit="10" stroke-width="3" d="M62.874,46.747c1.052-2.885,1.626-5.998,1.626-9.247c0-14.912-12.088-27-27-27s-27,12.088-27,27s12.088,27,27,27	c3.248,0,6.362-0.574,9.247-1.626L51.5,67.5h7v7h7v7h7v7h16v-16L62.874,46.747z"/><circle cx="29" cy="29" r="7" fill="#fff"/></svg>